<?xml version="1.0"?>
<svg width="1000" height="300" xmlns="http://www.w3.org/2000/svg" xmlns:svg="http://www.w3.org/2000/svg" xmlns:xlink="http://www.w3.org/1999/xlink">
 <!-- Created with SVG-edit - https://github.com/SVG-Edit/svgedit-->
 <defs>
  <symbol height="80" id="svg_19" viewBox="0 0 401 122" width="263" xmlns="http://www.w3.org/2000/svg">
   <style>.st0{fill:#003f2d}.st1{fill:#42b129}</style>
   <g id="svg_18">
    <path class="st0" d="m249.5,78.7c-6.7,-3.1 -9.2,-10.3 -6,-17.1c2.6,-5.5 8,-7.9 18.8,-8.4c4.8,-0.2 8.7,-0.8 8.7,-1.3c0,-3.7 -12.1,-5.2 -19.9,-2.4l-4.1,1.4l0,-11.8l4.8,-0.8c2.6,-0.4 8.8,-0.8 13.8,-0.7c7.5,0 9.9,0.4 13.9,2.5c8.3,4.1 9,5.7 9.3,23.5l0.3,15.4l-9,0c-9.1,0 -9.1,0 -9.1,-2.6l0,-2.5l-3.6,2.7c-4.3,3.3 -13,4.3 -17.9,2.1zm19,-11.2c1.4,-1.3 2.5,-3.3 2.5,-4.5c0,-1.6 -0.6,-2 -3.3,-2c-6.1,0 -10.2,5.4 -5.9,7.9c2.7,1.6 4.1,1.3 6.7,-1.4zm-83.5,-16l0,-27.7l20.8,0.4c23.2,0.4 26.6,1.2 30.2,7c3.9,6.4 1.5,14.9 -5.1,18.3l-3.1,1.7l3.3,1.6c5.1,2.6 8.2,7.8 7.6,12.9c-0.6,5.3 -2.7,8.7 -7,11c-2.7,1.5 -6.4,1.8 -24.9,2.1l-21.8,0.3l0,-27.6zm29.3,15.4c2.6,-1.4 3.7,-2.8 3.7,-5.1c0,-3.2 -2.9,-4.8 -8.6,-4.8l-5.4,0l0,4.8c0,2.7 0.3,5.2 0.7,5.5c1,1.1 7.2,0.8 9.6,-0.4zm0.8,-22.9c2.2,-1.2 2.6,-5.9 0.7,-7.8c-0.7,-0.7 -3.6,-1.2 -6.5,-1.2l-5.3,0l0,10l4.6,0c2.5,0 5.4,-0.5 6.5,-1zm79.1,14.8l0.3,-20.3l9.3,-0.3l9.2,-0.3l0,2.6c0,3.1 0.5,3.1 4.1,0.1c5.6,-4.7 16.1,-4.2 21,1c2.3,2.5 2.4,3.1 2.7,20l0.3,17.4l-20,0l-0.3,-14.2c-0.3,-13.2 -0.4,-14.3 -2.2,-14.6c-3.7,-0.8 -4.6,2.4 -4.6,16l0,12.8l-20,0l0.2,-20.2zm53.8,-9.3l0,-29.5l19,0l0,16.5c0,9.1 0.4,16.5 0.8,16.5c0.5,0 3.2,-3.4 6.1,-7.5l5.2,-7.5l11,0c8.6,0 10.8,0.3 10.2,1.3c-0.4,0.6 -3.2,4.4 -6.1,8.2c-3,3.9 -5.7,7.6 -5.9,8.2c-0.3,0.7 2.5,5.9 6.1,11.6c3.6,5.7 6.6,10.7 6.6,11c0,0.4 -5.1,0.7 -11.2,0.7l-11.3,0l-4.9,-9c-2.7,-5 -5.3,-9 -5.8,-9c-0.4,0 -0.8,4.1 -0.8,9l0,9l-19,0l0,-29.5z"/>
   </g>
   <path class="st1" d="m0,61l0,-61l145,0l0,122l-145,0l0,-61zm57,4.5l0,-30.5l21.3,0c19.5,0 21.5,0.2 24.5,2c6.3,3.8 9.4,17.2 7.4,31.2c-2.2,14.7 -6.6,18.1 -22.4,17.6l-9.3,-0.3l-0.3,-23.2l-0.2,-23.3l-17,0l0,57.2l23.8,-0.4l23.7,-0.3l5.8,-2.8c9.3,-4.6 13.4,-12.6 14.4,-28.2c0.6,-9.8 -0.8,-20.8 -3.4,-25.9c-2.2,-4.4 -6.2,-8.4 -10.8,-10.9c-3.9,-2.2 -5,-2.2 -51.7,-2.5l-47.8,-0.3l0,10.1l25,0l0,61l17,0l0,-30.5z" id="svg_17"/>
  </symbol>
 </defs>
 <g class="layer" display="inline">
  <title>Layer 1</title>
  <line fill="none" id="svg_22" stroke="#000000" stroke-width="5" transform="matrix(1 0 0 1 0 0)" x1="-447.33" x2="-464.33" y1="-506.67" y2="-487.42"/>
  <rect fill="#ffffff" height="145.5" id="svg_35" stroke="#ffffff" stroke-width="5" width="177.5" x="27.92" y="58.33"/>
  <use id="svg_20" transform="matrix(1 0 0 1 0 0) translate(0.932999 1.60257) scale(1.37119 1.13991) translate(-0.932999 -1.60257) matrix(1.76486 0 0 2.83394 1.8896 2.60257)" xlink:href="#svg_19"/>
 </g>
</svg>